/* XPM */
static char *_8aaeb07ed014e5090e1f5251874d98dlATrU0SGkXDauHcQ[] = {
/* columns rows colors chars-per-pixel */
"64 64 231 2 ",
"   c #2E1C06",
".  c #321D06",
"X  c #331E0A",
"o  c #301E12",
"O  c #35220C",
"+  c #39260E",
"@  c #2C201A",
"#  c #362515",
"$  c #392413",
"%  c #3D2A12",
"&  c #3D291B",
"*  c #47320F",
"=  c #422D14",
"-  c #432E1A",
";  c #5C2D16",
":  c #592E1A",
">  c #463414",
",  c #493515",
"<  c #4C3914",
"1  c #45321A",
"2  c #4A361C",
"3  c #473818",
"4  c #4C3A1B",
"5  c #53381A",
"6  c #63351E",
"7  c #643A1F",
"8  c #4B3621",
"9  c #4E3B22",
"0  c #463B2D",
"q  c #593721",
"w  c #523D25",
"e  c #5D3C24",
"r  c #533E2B",
"t  c #453D33",
"y  c #653A22",
"u  c #683923",
"i  c #6A3C24",
"p  c #703E28",
"a  c #57441B",
"s  c #604B1B",
"d  c #554325",
"f  c #5B4924",
"g  c #56422A",
"h  c #5B4729",
"j  c #5A452C",
"k  c #5D492E",
"l  c #5F5128",
"z  c #464537",
"x  c #574533",
"c  c #5B4631",
"v  c #5E4A32",
"b  c #5A4838",
"n  c #5D5034",
"m  c #624125",
"M  c #62462C",
"N  c #624C2D",
"B  c #6A4829",
"V  c #71432A",
"C  c #64512C",
"Z  c #6B552D",
"A  c #675828",
"S  c #6B5D2C",
"D  c #725627",
"F  c #735A25",
"G  c #735729",
"H  c #74592A",
"J  c #795D2B",
"K  c #604733",
"L  c #614C34",
"P  c #634D39",
"I  c #694C39",
"U  c #774C36",
"Y  c #7B4D35",
"T  c #7C4F39",
"R  c #645135",
"E  c #6A5434",
"W  c #665835",
"Q  c #6D5934",
"!  c #66523B",
"~  c #6A553D",
"^  c #6C583E",
"/  c #7D5234",
"(  c #715A35",
")  c #72563A",
"_  c #7E5039",
"`  c #725D3C",
"'  c #6D6126",
"]  c #6E612D",
"[  c #71622E",
"{  c #79622C",
"}  c #6E6132",
"|  c #6F613E",
" . c #726334",
".. c #756A33",
"X. c #7B6836",
"o. c #76613D",
"O. c #79633E",
"+. c #7C6B3A",
"@. c #7D743A",
"#. c #5D5645",
"$. c #5C574B",
"%. c #5E594A",
"&. c #585A50",
"*. c #674F42",
"=. c #6B5641",
"-. c #665947",
";. c #6D5942",
":. c #625B4B",
">. c #715645",
",. c #735C43",
"<. c #775D48",
"1. c #625C50",
"2. c #6F604F",
"3. c #756244",
"4. c #796545",
"5. c #7B644B",
"6. c #7D694B",
"7. c #666155",
"8. c #7F6B52",
"9. c #7B6D5D",
"0. c #777469",
"q. c #7B786C",
"w. c #814D35",
"e. c #87553C",
"r. c #945B3D",
"t. c #876B3A",
"y. c #99633F",
"u. c #86773A",
"i. c #8E733D",
"p. c #90743C",
"a. c #957A3C",
"s. c #8D5D41",
"d. c #925D43",
"f. c #9B5E44",
"g. c #9A5F48",
"h. c #876A44",
"j. c #81694C",
"k. c #9C6244",
"l. c #996945",
"z. c #837644",
"x. c #8D7341",
"c. c #897D42",
"v. c #87774B",
"b. c #917541",
"n. c #947A44",
"m. c #987D43",
"M. c #806752",
"N. c #846C53",
"B. c #866E59",
"V. c #847053",
"C. c #8A7356",
"Z. c #80775E",
"A. c #8C745C",
"S. c #8E795D",
"D. c #90755D",
"F. c #90785E",
"G. c #A16345",
"H. c #A76E4A",
"J. c #AD724A",
"K. c #B3774D",
"L. c #AD7050",
"P. c #B27653",
"I. c #B57A54",
"U. c #877866",
"Y. c #8F7961",
"T. c #927B63",
"R. c #927869",
"E. c #847D74",
"W. c #7F8073",
"Q. c #9E813F",
"!. c #8F8348",
"~. c #9F8242",
"^. c #9E8448",
"/. c #A28644",
"(. c #A58B46",
"). c #A98E44",
"_. c #A0844B",
"`. c #A78C4B",
"'. c #AA8E4A",
"]. c #AB9146",
"[. c #AC924C",
"{. c #A58C52",
"}. c #B48F53",
"|. c #BEA94F",
" X c #BBA455",
".X c #978367",
"XX c #868175",
"oX c #898275",
"OX c #868279",
"+X c #898279",
"@X c #8D8A79",
"#X c #9F8B72",
"$X c #938E7E",
"%X c #8F917D",
"&X c #A18C6C",
"*X c #A28D74",
"=X c #AA947B",
"-X c #AA967D",
";X c #C8955C",
":X c #C3AB58",
">X c #958F81",
",X c #989483",
"<X c #9B9484",
"1X c #9F9B8A",
"2X c #AE9A81",
"3X c #A39D8B",
"4X c #B19C83",
"5X c #B39D88",
"6X c #A49E90",
"7X c #A5A18E",
"8X c #B7A28B",
"9X c #B7A589",
"0X c #ACA995",
"qX c #B8A390",
"wX c #BEAA91",
"eX c #B4B19C",
"rX c #B6B5A2",
"tX c #B9B6A2",
"yX c #B7B9A5",
"uX c #B9B9A5",
"iX c #C0A98F",
"pX c #C4AE98",
"aX c #C4B097",
"sX c #C6B29A",
"dX c #C9B49C",
"fX c #CBB6A1",
"gX c #CEBCA4",
"hX c #D3BFAA",
"jX c #CEC1A9",
"kX c #D1C1A7",
"lX c #D3C3AC",
/* pixels */
"~ ~ ~ ^ =.=.=.<.^ ^ ^ ^ ^ ^ ^ ^ ^ ^ ^ ^ ~ ~ v R ^ ^ ^ ! P P ! ^ ^ ^ W W =.=.,.>.>.=.x & X O $ + $ X   - N.5XsX8X  8 ^ ^ ^ ^ ^ P ",
"L L L L L P P <.^ =.=.~ ~ ~ ~ ! L =.P ~ P v ` ` ` ` ` W v g ` ` ` ` 3  .! $ H.P.K.I.I.I.P.k. X|. Xc lXsXsXsXsXfXpXO v ^ ^ ^ ^ v ",
"v L v L L L L =.5.L v P ~ P v v P P =.P =.x ` ` ` ` ` W L L ` ` ` =.2 } S & k.r.f.r.r.r.k.k.[.`.m.g 2X2X2X2X2X2X~ X P P ~ ^ ^ ^ ",
"L L L L v v P ,.! P L ^ ^ ^ I L M j M h j j ^ Q Q W ,.P L N.` ` | Q 8  .Q f Y / _ _ _ _ _ w.[.i.i.x 2X2X4X2X2X4X! . L L L ! ! =.",
"L L L L L ~ P 3.b 1X3X3X3X$X9.v ~.(./.a.j 3.=.N.S.A.C.5.A.D.Y.S.A.6.P c.Q S @.e._ _ _ _ _ e.h.i.i.v Y.S.S.A.S.Y.,.O P L L L L v ",
"- O . O O O !.c.;.<XXXE.+XE.9.g p.p.p.t.j P v k L L j j L v v j L L L & o 8 +.7 6 6 y y y y % 2 3 O   % % % % = = . x =.L x j r ",
"3.,.3.` 3.a Z  .R U.9.2.-.-.~ w  .L K j j L v L L L 2 k L L L L L L L P W . O % 1 v =.+ ! ~ =.=.5.B.A.Y.T.T.T.N.2 O % = 2 d v ! ",
"p.p.p.i.G Q } z.2 v j g k L R C C x g j j L v g v L + L L L L L L L L % - <.^.`.(.`.n.E ! 3X3X3X3X<XXXh.).).).{.i.j O.p.p.p.p.p.",
"i.x.J H B Q x  .k L L v x [.'.[.].[.]./.f k g k L v = L L L k v k g j 5.g 1 ).'.p.i.i.i.x 3XoXXX+X+XE.x.[.b.i.i.i.,.t.i.i.i.i.t.",
"H H H H G 5.P P R =.^ ~ v ~.Q.i.i.i.i.p.( x L L v v 9 W L L v L   j.k P d O t.p.p.p.p.h.& XXE.W.OX+X+Xh.i.i.i.t.h.E Z { J H G Z ",
"< < < < < 6.K L L P v P g k N C C v j v v j L L L v g g L L g L O L v L g g 2 2 2 5 q e e e e q 9 d A 9 5.S.T..XS.^ ^ * < , a Q ",
"` ^ ` ` ` 3.P L L L B.v L R R R R R R R R g v N j k R v L v L v g v g k j j j g v k.f.y.k.k.k.k.p 4...-XsXsXsXdX9X! ` ` ` Q | Q ",
",.M.M.B.B.5.L L L L <.k C.M.,.R R R R R R L L g . 1 2 j g k L L L N.k L v L j j g e.d./ _ _ T _ V o.u.V.sXwX5X4X-X=.~ P P L P ^ ",
"v P ~ P P L L L L L ^ k k v ) N.R R R R R R R P - g g j g R L g L g L L L v v L j Y T U T Y Y _ V l S 9X5X5X4X2X2X=.v L L L L L ",
"v ! v L L L v P L L L j j j j P N.v v P R R R R P 8.D.v j j ! P v v k L L v j j g E u 6 y y y y m ^ 1 P 2X2X2X2X2XP L L L L L L ",
"P L ~ P ! v P ! ! ! P g v g g A.L v R R R R R R R L R P k L L L L L L v L k L j g 3.C.C.C.A.A.A.A.5.1 P P L L v v P L L L L L P ",
"L L P ^ C.g k ~ ~ W P g P k A.) C.A.B.) L k L L R R R v j P L L L L L L L L L j ^ ) v L v j g g j L k v j g P L L L L L L L L v ",
"L L v P ^ ! T.P g k j g g P ,.=.g k N c k N E ,.5.~ L P L v k / k.l.l.H.l.l.N j ^ j g L L L d v g L L L j g P L L L L L L L L L ",
"L P L =.P v ~ M.g P 9XhXhXgXgXlXlX>.rXrXrXrXtXrXeX0Xz :X:X].K L.k.k.k.k.k.G.: g g k k v j k v L g L g P d A.! L L P L L L L L L ",
"^ ~ ! P ~ ~ P C.j u.-X2X2X4X2X2X*X) 3X3X3X,X>X$X>X<Xz ].i.i.L _ _ _ _ _ _ Y ; L j L v v g v j v O P 5.A.B.,.~ =.~ v L L P v P L ",
"^ ^ =.~ ~ ~ =.A.C ] +.&X4X2X2X2X*X~ @XXX+X+XXXOXOXOXz {.i.i.k T _ _ T T T Y ; k k k g k g v w 2 B.^ =.=.=.^ ~ P L v L P =.=.v v ",
"^ ^ =.^ ^ ^ ^ C.g .. .Q =X2X4X4X2X~ +X+X+X+X+X+X+X+Xt i.i.i.j i V V i i i i ; j L L L L v 1 2 c ^ ^ P P ^ ^ ^ P =.=.L =.L v P ~ ",
"^ ^ ^ ^ ^ ^ P T.g c...[ X.6.T.T.A.E 1.%.:.1.:.:.:.1.#.4 < , L M m e e m m m y k L w X + 2 x x j W ! v j g j j v v P L ! ! ~ ~ ~ ",
"^ ^ v ^ ^ ^ ! g k - & v z.b o.n././._.t.N E E ( ,.,.o.+.u.u.H h 7.%X%X@X&.! R L 1 L ,.g j j j j C.A.M.M.B.N.N.8.M.N.M.=.~ ^ ^ ^ ",
"g d k v 9 k v 9XwXwXaXiXN.b ).i.x.x.i.p.j k k t.v L P R L L L v eX3X3X3X7X0 V.N.B.^ ^ ~ ^ j j M.,.! L ~ v =.L L v ~ ^ =.^ ^ ^ ^ ",
"*.].m.`.t.P W sXpX8X2X5X.XL /.i.i.t.F F j L Q c L L v L L L L v 7X3X3X3X3Xt F.^ ^ ^ ^ ^ ~ j j A.! ~ v P ^ ^ ^ ~ =.=.^ ~ ! ^ ^ ~ ",
"P p.i. .~ v T.5X2X-X5X2Xj k { H G G H G j L ( L d g v P ^ k L v eX3X3X3X3Xt F.~ ^ ^ ^ ^ =.g k D.^ L P ^ =.=.^ ^ ^ =.^ =.v ! ! ~ ",
"! ! ~ ! ~ v k L v L v ! L v 2 > , , > > d C v L j 4 4 , ` Q L v 0 3X3X3X3X0 A.^ ^ ^ ^ ^ ^ ~ P =.^ ^ ! ~ =.~ v ~ P  .! ^ P L =.~ ",
"L n ~ U U T ) ) ,.,.=.=.;.~ g L L L j g j k P L j L L ,.L L v v 1X<XoX1XXXt C.^ ^ ~ ^ ^ ^ ^ ^ L ^ ^ P ~ ;.j ! L A u.>.=.;.v ! c ",
"R G.k.f.f.r.e.w.P P v P P =.j k L v v L v j v L g L k v L L L v 3X#.+XE.q.n C.^ ^ =.^ ^ ^ ^ ^ ^ ^ ^ =.~ ! 8.P L M  .r P v P v x ",
") s.w.T _ _ _ _ L ! =.) ^ ^ ^ k k k j v g j L 3.D.k L L L L v v 3X:.,X+Xq.# ..2 ^ 8.^ ^ ^ ~ ~ ^ ^ ^ =.5.v L L L g ....4.r =.~ P ",
"k x x v x P L ! P =.^ 4.) ~ =.C.v k L g g A.N.! ,.T.k k k L L v E.+X$.+XXX} ] & ^ ,.^ ^ ^ ^ ^ ^ ^ ` 1 ^ ^ ^ E d x c.S 3 P L L ~ ",
"=.P g k ,.5.N.F.<.~ ,.` Q ,.~ P ^ ^ ) >.P L ~ ^ ^ ^ 5.P L L L v XX+X%.E.E.[ } =.R P ^ ^ ^ ^ =.P ` ` ` ` ` ` ` j v ..} L L v v L ",
"L K ` ( E Q o.Q ` F.5.o.` Q P ;.^ ~ P ~ L ~ ^ ^ ^ =.^ ^ C.! k v 1.7.b k A  .Q b v A.^ ^ ~ ~ ~ j ` ` E ` ` ` ` c % R ! v v w A.L ",
"=.5.4.` ( ` ` O.) ) ` 4.O.O.P v ! ;.P =.=.=.=.=.=.=.^ =.=.=.~ ~ :.$.@ A z.[ k o.5.^ =.=.^ ^ ^ j ^ ^ ` 3.` W R j j j j C.T.g P ! ",
"P P ) ) ) O.Q ( ( O.O.O.O.B 7 y y B =.t.(.[.[.[.].).'.'.a.j ^ P 5.5. .u.] } @.+.P W L ~ ^ ^ ^ ! P v P g k R ,.A.k j ,.~ =.~ ,.^ ",
"L L L O.` ` ` o.) ,.Q Q ( J.;X;X;XJ.; ). X).).].).'.[.n.b.d L L L L j $ $ , = 2 r >.P =.=.=.^ ^ L L L L L L L L g ~ ~ =.=.=.=.! ",
"L L P E ) ` O.o.o.) ` Q O.}.;X;X;XH.6 (.a.b.p.p.p.i.t.i.x.h L L v L g N w f g ! = /.).].).x.,.^ P L L L L L L P ! ! P P P P P P ",
"L L P P P ) Q ) ) ( ) ` O.K.P.K.P.G.: i.i.i.i.i.i.D 5 H F r L v v v L L k L g L x.p.i.i.i.b.E ^ =.L L L L L L L v L L L P L L v ",
"L P v P ( ) ) ) ) ` ) ` o.K.P.H.k.k.: i.i.b.{ G H H H H F j L L v v L L L L L L t.i.x.D G G L ^ =.P P P =.! L L P ~ L L L L L ~ ",
"~ ~ P ) ` > N ) ) Q ) ( L k.k.f.g.T : s S H F D H H H D a 3 k L L L L L L L k L 5 ( = 2 X.N R =.^ ^ ^ ^ ^ ~ L L L =.=.L L ~ =.=.",
"=.~ ` 4 k W ~ 4 ` O.( k P k.w.e._ Y q 4 5 . > 4 2 3 < , > h k L L L L L L L L L C.N.N.N.N.B.A.L L v ! ~ =.! =.P P =.~ P L L ;.! ",
"~ ^ k =.! =.=.=.d ` ! W ~ d._ U T U c.;.9 k L L L L L L 2 L L L L L L L C E j.T.T.&X.XV.3.k L h y u V V V y 6 y ^ ^ ~ ~ ^ 5.P L ",
"~ ~ ~ =.P P L P =.v > R P T _ Y Y B S c.P L L L L j L k O L L L L L L v ` lXlXlXlXlXlXdX~ C.L Y k.f.f.k.f.d.u T i ^ =.A.5.L L L ",
"! v L =.~ P P P L v P 9 ~ Y T T _ e.a ' v L L L L L L k O P L L L L L L ,.gXsXsXsXdXdXsX=.C.k U e._ _ _ _ T T _ i ,.A.=.L L L L ",
"v P ~ ~ =.~ ~ L L ! ! Q 4 7 i i p u N A O k L L v L L v ! 2 g L L L L j ,.sXsXqXiX4X2X2X^ C.k i T _ _ _ _ T T T y W 5.v L L L P ",
"L ^ ~ ^ ~ ~ L L P ~ L ^ 5.w < , < , S. .v R g v j L k L L L k j L L L j 3.2XO 4X2X2X2X2XW g R y y V V p i y y y y R C.L L L L v ",
"v v P ~ ~ ~ P P ! ! ~ P =.P 5.<.,.P ,.N.L L k L k L k j P P L g L L L h C.g M.R.F.A.S.;. .Q ! v L L k 9 - $ $ O O ,.A.L L v L L ",
"L P =.^ =.L L ~ ~ ~ ~ k ~ ~ W ^ ~ ! ,.P g v L g v L L k k L L v L L L L k L L L L C C z.+.4 k R ` ` ` o.,.` ` ` ` F.^ L L L L L ",
"L x t.~.~.~.Q.a.a.p.h.P.G.5 lXlXgXgXhXlXhXN k L L L L L L L Z E k k j L L L L L L i.x.v.] , h +.i.i.i.i.i.p.N Q A.L ! v b v v L ",
"v x p.i.i.i.b.x.i.p.l.k.d.: 2X4X2X4X2X2X~ v L k L L L L L R Q ( O g k g L L L k N J F a [ H ~ X.b.i.i.t.G G B ^ P L ! C u.4.k L ",
"P R ~.J H H H H H F d._ _ ; 5X2X2X2X2X2X~ P L L k N L v N Q ( ( r j j j L L L L R j j 9 + h ^ Q H H H H H H D N.v L c S z.f I L ",
"! =.H H H H H H H H Y T T ; 4X-X=X=X*X*X! v L L E ` ( ( ( ( ( Q g L k j L L k k ~ ^ W ~ P L P ^ , , , , , , , j.L L v w @.=.c L ",
"P =.4 2 2 2 2 , , < y 6 u y V.Y.A.A.S.A.S.P L L L L ` Q ( ( ( ( r L L j L v g g 8.j j j j L v ~ Q ) ` ` ^ ` ,.V.P P P X.R L v P ",
"-.#.:.#.#.:.#.! L f 5 w T.pXdXdX8XL g k L v L L L ) Q ) E ) ( ( r L L j g g L k d g j L g v k v j k j j j k L h k x L R Z x.x.v ",
"tXuXtXrXrXuXrXtX-.* C h T.sXsXsXaXW L L L L L L L ` ( Q ( ( ( ( 1 R ` L P k g j j 9 k k L L L j j j v v j v v N.=XwXwX5Xk :.0.eX",
"rX0X7X3X3X1X3X3X7X@Xx b.S.dXwX2X4X3.L L L k L L L k ) ( ( ( E E E ] 9XlXjXgXjXlXlX9 rXuXyXuXuXtXrX1X|.:X].<.kXfXsXdXsXhXB.1XuXtX",
"3X3X3X6X6X6X<X$X+X+XQ S ,.4X4X2X4X6.L k L L k v v L k ( E E E E  .u.qX2X2X2X2X4X*Xj <X3X1X>X$X$X<X3X).~.m.5.2X2X4X4X5X2X~ 3X3X3X",
"+X+X+X+X+X+X+X+X+X+Xo.( g 2X5X2X2X8.L L j P j v P v j N E E E ( Q [ V.V.2X#X1 . . X XX+X+X+X+X+X+XXX[.i.i.~ 2X4X4X4X4X5X~ q.XX+X",
"+X+X+X+X+X+X+X+X+XZ.. z.@.A.A.A.T.~ L L k g A.L 4.^ k j E , [ } S S } 4.2X2X2X2X*Xg +XXXXXXXXXXXXXq.v.b.x.! A.T.T.A.A.A.~ 9.XX+X",
":.:.:.#.%.-.-.-.=.! S '  .9 W 3.` R L L C.E L ~ W P P C.M v.S a l @.c.@.T.T.T.T.T.L %.7.#.:.%.%.$.:.h > L 4.j.j.6.j.5.5.=.:.%.%.",
"^ ~ =.P =.=.^ =.~ ^ !  .< v.R = ^ v 3.=.L L L P ! L v L b N x P g + o } ^ ~ P ~ =.~ ^ ^ ! x 2 O O 8 w w 8 ! K ~ ~ P L =.~ L v L ",
"^ ^ P P v =.^ P v ^ <.*.E Q Q O ^ g ~ P P L L =.=.=.~ L P - ~ =.~ E S ~ ^ ~ ~ =.=.~ ^ ^ =.=.! =.>.P P P =.P j.=.! P L v =.=.P L ",
"P =.=.~ L =.P ~ =.~ ~ =.~ ~ ~ v W ~ ^ ~ ~ ^ ^ ^ ^ ^ ^ ^ ~ ~ ^ ^ ^ ^ R W ^ ^ ^ ^ ^ ^ ^ ^ ^ ^ ^ ^ ^ =.~ ^ ~ =.d =.~ ~ ~ ~ ~ ;.=.~ "
};